<?xml version="1.0" encoding="UTF-8" standalone="no"?><!DOCTYPE svg PUBLIC "-//W3C//DTD SVG 1.1//EN" "http://www.w3.org/Graphics/SVG/1.1/DTD/svg11.dtd"><svg width="100%" height="100%" viewBox="0 0 1772 280" version="1.1" xmlns="http://www.w3.org/2000/svg" xmlns:xlink="http://www.w3.org/1999/xlink" xml:space="preserve" xmlns:serif="http://www.serif.com/" style="fill-rule:evenodd;clip-rule:evenodd;stroke-linejoin:round;stroke-miterlimit:2;"><rect id="Wortmarke" x="0" y="0" width="1771.65" height="279.583" style="fill:none;"/><clipPath id="_clip1"><rect x="0" y="0" width="1771.65" height="279.583"/></clipPath><g clip-path="url(#_clip1)"><g id="Ebene-1" serif:id="Ebene 1"><path d="M356.571,16.375l60.513,0c27.516,0 48.42,1.837 61.249,6.59c27.137,10.284 43.275,33.761 43.275,63.464c-0,13.2 -1.823,20.905 -7.705,32.647c-13.557,27.501 -39.972,38.136 -83.611,38.136l94.989,122.498l-32.64,-0l-94.618,-122.498l-15.044,-0l0,122.498l-26.408,-0l0,-263.335Zm26.408,25.679l0,89.493c14.673,0 29.703,0.365 43.646,0.365c22.742,-0 40.338,-2.209 51.708,-11.378c9.541,-7.704 15.773,-20.533 15.773,-34.105c0,-25.679 -17.602,-44.375 -57.211,-44.375l-53.916,-0Z" style="fill:#1d1d1b;fill-rule:nonzero;"/><path d="M716.467,16.375l-105.266,98.663l-0,-98.663l-26.401,0l-0,263.335l26.401,-0l-0,-122.863l115.894,122.863l34.841,-0l-136.427,-145.24l126.528,-118.095l-35.57,0Z" style="fill:#1d1d1b;fill-rule:nonzero;"/><path d="M1119.24,16.402l64.908,-0.926c28.981,-0.413 55.76,0.666 81.957,10.929c47.579,18.388 76.469,63.458 77.296,121.412c1.08,75.171 -43.625,129.368 -128.351,130.58l-92.046,1.311l-3.764,-263.306Zm68.673,236.702c49.871,-0.715 82.819,-5.587 105.883,-34.518c14.771,-18.557 22.496,-42.504 22.104,-70.012c-0.386,-26.773 -8.062,-50.502 -22.994,-69.367c-25.405,-32.275 -62.911,-38.711 -120.129,-37.891l-26.765,0.386l3.036,211.956l38.865,-0.554Z" style="fill:#1d1d1b;fill-rule:nonzero;"/><path d="M1391.93,279.713l26.394,-0.378l-3.765,-263.312l-26.394,0.377l3.765,263.313Z" style="fill:#1d1d1b;"/><path d="M775.603,279.711l320.237,0l-160.115,-277.334l-160.122,277.334Zm160.122,-226.53l116.125,201.132l-232.244,-0l116.119,-201.132Z" style="fill:#1d1d1b;fill-rule:nonzero;"/><path d="M1451.42,279.216l320.237,0l-160.115,-277.334l-160.122,277.334Zm160.122,-226.53l116.126,201.132l-232.244,-0l116.118,-201.132Z" style="fill:#1d1d1b;fill-rule:nonzero;"/><path d="M-0,279.711l320.237,0l-160.122,-277.334l-160.115,277.334Zm160.115,-226.53l116.126,201.132l-232.244,-0l116.118,-201.132Z" style="fill:#1d1d1b;fill-rule:nonzero;"/></g></g></svg>